<?xml version="1.0" encoding="UTF-8" ?>
<!DOCTYPE svg PUBLIC "-//W3C//DTD SVG 1.1//EN" "http://www.w3.org/Graphics/SVG/1.1/DTD/svg11.dtd">
<svg width="582pt" height="619pt" viewBox="0 0 582 619" version="1.1" xmlns="http://www.w3.org/2000/svg">
<path fill="#efc548" stroke="#efc548" stroke-width="0.09375" opacity="1.00" d=" M 0.00 0.00 L 0.26 0.00 C 0.19 0.06 0.06 0.19 0.00 0.26 L 0.00 0.00 Z" />
<path fill="#7e3643" stroke="#7e3643" stroke-width="0.09375" opacity="1.00" d=" M 81.43 61.43 C 88.64 55.88 98.22 55.13 107.00 55.60 C 228.68 55.64 350.36 55.61 472.04 55.62 C 477.73 55.89 483.93 56.68 488.35 60.65 C 492.28 63.62 494.00 68.40 495.88 72.76 C 498.07 77.89 497.07 83.59 497.21 89.00 C 496.84 114.27 497.69 139.57 496.77 164.82 C 494.02 169.12 489.36 172.53 484.06 172.35 C 354.71 172.36 225.35 172.34 96.00 172.36 C 90.74 172.26 85.15 173.09 80.22 170.80 C 77.67 169.71 76.08 167.36 74.16 165.49 C 73.75 159.33 73.64 153.16 73.74 147.00 C 73.74 124.66 73.78 102.32 73.74 79.98 C 73.87 73.20 76.54 66.21 81.43 61.43 M 215.89 87.90 C 210.15 93.35 207.43 101.24 206.77 108.99 C 206.17 116.99 206.65 125.39 210.30 132.69 C 214.13 140.62 221.37 147.21 230.21 148.79 C 239.61 150.63 249.89 150.92 258.76 146.82 C 266.66 143.14 271.59 135.13 273.57 126.88 C 267.74 124.25 261.41 122.89 255.26 121.21 C 253.59 125.21 252.38 130.03 248.34 132.33 C 243.14 135.01 235.88 134.76 231.77 130.22 C 228.26 126.41 228.09 120.88 227.78 115.99 C 227.77 110.20 227.87 103.57 232.09 99.08 C 236.42 94.26 244.40 93.67 249.57 97.46 C 251.98 99.23 253.05 102.16 254.41 104.71 C 260.66 103.80 266.78 102.15 272.90 100.59 C 271.37 95.04 268.26 89.88 264.03 85.98 C 257.82 80.37 249.07 78.91 240.98 78.98 C 231.96 78.97 222.46 81.41 215.89 87.90 M 145.16 80.13 C 145.11 103.04 145.11 125.96 145.15 148.87 C 152.16 149.12 159.18 149.06 166.19 148.93 C 166.67 139.70 166.27 130.46 166.32 121.22 C 175.22 120.63 184.14 121.29 193.04 120.90 C 193.34 116.31 193.34 111.69 193.04 107.10 C 184.15 106.70 175.23 107.38 166.35 106.78 C 166.28 103.26 166.28 99.74 166.35 96.23 C 176.78 95.56 187.25 96.43 197.69 95.80 C 197.68 90.60 197.68 85.40 197.69 80.21 C 180.19 79.81 162.66 79.95 145.16 80.13 M 368.16 80.13 C 368.11 103.05 368.10 125.96 368.15 148.87 C 380.79 149.13 393.43 149.03 406.07 148.92 C 413.15 148.32 421.36 148.16 426.53 142.53 C 432.01 137.10 432.60 128.48 430.58 121.40 C 428.77 116.06 423.55 113.29 418.73 111.14 C 421.36 109.35 424.36 107.81 426.14 105.06 C 430.39 98.60 428.90 88.99 422.72 84.26 C 418.06 80.44 411.78 79.89 405.99 79.97 C 393.38 80.12 380.76 79.79 368.16 80.13 M 304.36 118.34 C 304.28 122.46 304.29 126.59 304.35 130.71 C 315.50 130.92 326.67 130.81 337.83 130.78 C 338.02 126.63 338.01 122.47 337.75 118.32 C 326.62 118.33 315.49 118.28 304.36 118.34 Z" />
<path fill="#ffffff" stroke="#ffffff" stroke-width="0.09375" opacity="1.00" d=" M 215.89 87.90 C 222.46 81.41 231.96 78.97 240.98 78.98 C 249.07 78.91 257.82 80.37 264.03 85.98 C 268.26 89.88 271.37 95.04 272.90 100.59 C 266.78 102.15 260.66 103.80 254.41 104.71 C 253.05 102.16 251.98 99.23 249.57 97.46 C 244.40 93.67 236.42 94.26 232.09 99.08 C 227.87 103.57 227.77 110.20 227.78 115.99 C 228.09 120.88 228.26 126.41 231.77 130.22 C 235.88 134.76 243.14 135.01 248.34 132.33 C 252.38 130.03 253.59 125.21 255.26 121.21 C 261.41 122.89 267.74 124.25 273.57 126.88 C 271.59 135.13 266.66 143.14 258.76 146.82 C 249.89 150.92 239.61 150.63 230.21 148.79 C 221.37 147.21 214.13 140.62 210.30 132.69 C 206.65 125.39 206.17 116.99 206.77 108.99 C 207.43 101.24 210.15 93.35 215.89 87.90 Z" />
<path fill="#ffffff" stroke="#ffffff" stroke-width="0.09375" opacity="1.00" d=" M 145.16 80.13 C 162.66 79.95 180.19 79.81 197.69 80.21 C 197.68 85.40 197.68 90.60 197.69 95.80 C 187.25 96.43 176.78 95.56 166.35 96.23 C 166.28 99.74 166.28 103.26 166.35 106.78 C 175.23 107.38 184.15 106.70 193.04 107.10 C 193.34 111.69 193.34 116.31 193.04 120.90 C 184.14 121.29 175.22 120.63 166.32 121.22 C 166.27 130.46 166.67 139.70 166.19 148.93 C 159.18 149.06 152.16 149.12 145.15 148.87 C 145.11 125.96 145.11 103.04 145.16 80.13 Z" />
<path fill="#ffffff" stroke="#ffffff" stroke-width="0.09375" opacity="1.00" d=" M 368.16 80.13 C 380.76 79.79 393.38 80.12 405.99 79.97 C 411.78 79.89 418.06 80.44 422.72 84.26 C 428.90 88.99 430.39 98.60 426.14 105.06 C 424.36 107.81 421.36 109.35 418.73 111.14 C 423.55 113.29 428.77 116.06 430.58 121.40 C 432.60 128.48 432.01 137.10 426.53 142.53 C 421.36 148.16 413.15 148.32 406.07 148.92 C 393.43 149.03 380.79 149.13 368.15 148.87 C 368.10 125.96 368.11 103.05 368.16 80.13 M 389.35 94.23 C 389.30 98.08 389.30 101.92 389.35 105.76 C 394.09 106.05 398.93 106.45 403.63 105.48 C 408.91 104.55 408.97 95.43 403.63 94.51 C 398.94 93.54 394.09 93.95 389.35 94.23 M 389.34 119.23 C 389.33 123.74 389.33 128.25 389.34 132.77 C 394.93 133.01 400.72 133.64 406.19 132.17 C 411.86 130.70 411.99 121.20 406.21 119.79 C 400.72 118.37 394.94 118.99 389.34 119.23 Z" />
<path fill="#7e3643" stroke="#7e3643" stroke-width="0.09375" opacity="1.00" d=" M 389.35 94.23 C 394.09 93.95 398.94 93.54 403.63 94.51 C 408.97 95.43 408.91 104.55 403.63 105.48 C 398.93 106.45 394.09 106.05 389.35 105.76 C 389.30 101.92 389.30 98.08 389.35 94.23 Z" />
<path fill="#ffffff" stroke="#ffffff" stroke-width="0.09375" opacity="1.00" d=" M 304.36 118.34 C 315.49 118.28 326.62 118.33 337.75 118.32 C 338.01 122.47 338.02 126.63 337.83 130.78 C 326.67 130.81 315.50 130.92 304.35 130.71 C 304.29 126.59 304.28 122.46 304.36 118.34 Z" />
<path fill="#7e3643" stroke="#7e3643" stroke-width="0.09375" opacity="1.00" d=" M 389.34 119.23 C 394.94 118.99 400.72 118.37 406.21 119.79 C 411.99 121.20 411.86 130.70 406.19 132.17 C 400.72 133.64 394.93 133.01 389.34 132.77 C 389.33 128.25 389.33 123.74 389.34 119.23 Z" />
<path fill="#001543" stroke="#001543" stroke-width="0.09375" opacity="1.00" d=" M 76.57 190.67 C 78.53 188.54 80.76 186.01 83.97 186.33 C 92.32 186.30 100.65 185.64 109.00 185.79 C 226.00 185.80 343.00 185.78 460.00 185.80 C 469.01 185.86 478.03 185.56 487.02 186.36 C 489.72 186.39 491.80 188.29 493.68 190.01 C 493.99 190.54 494.61 191.62 494.92 192.16 C 495.54 195.05 495.20 198.05 495.25 201.00 C 495.16 227.39 495.17 253.78 495.26 280.17 C 468.49 280.47 441.71 280.38 414.94 280.22 C 410.25 273.89 406.33 266.89 400.47 261.53 C 396.62 257.71 393.01 253.65 388.98 250.03 C 382.44 243.72 376.07 236.63 367.36 233.37 C 363.30 231.91 360.74 228.15 356.93 226.26 C 346.60 220.54 334.96 217.97 323.86 214.20 C 319.34 212.46 314.45 212.34 309.77 211.29 C 302.29 209.47 294.56 210.84 286.97 210.40 C 282.15 210.27 277.37 208.56 272.55 209.60 C 263.12 211.29 253.54 212.30 244.31 214.92 C 239.67 216.14 234.87 216.72 230.31 218.26 C 222.90 220.74 216.14 224.73 209.09 228.02 C 203.15 230.76 197.94 234.76 192.93 238.89 C 188.37 242.69 183.01 245.52 178.97 249.94 C 174.63 254.63 169.68 258.76 165.87 263.93 C 162.08 269.07 158.06 274.06 153.78 278.80 C 152.17 280.84 149.31 280.32 147.03 280.49 C 123.31 280.20 99.57 280.72 75.85 280.25 C 75.32 253.18 75.84 226.08 75.58 199.00 C 75.63 196.71 75.41 194.36 76.02 192.12 C 76.15 191.76 76.43 191.03 76.57 190.67 Z" />
<path fill="#efc548" stroke="#efc548" stroke-width="0.09375" opacity="1.00" d=" M 272.55 209.60 C 277.37 208.56 282.15 210.27 286.97 210.40 C 294.56 210.84 302.29 209.47 309.77 211.29 C 314.45 212.34 319.34 212.46 323.86 214.20 C 334.96 217.97 346.60 220.54 356.93 226.26 C 360.74 228.15 363.30 231.91 367.36 233.37 C 376.07 236.63 382.44 243.72 388.98 250.03 C 393.01 253.65 396.62 257.71 400.47 261.53 C 406.33 266.89 410.25 273.89 414.94 280.22 C 418.21 285.48 421.42 290.83 423.41 296.73 C 425.95 302.76 429.97 308.18 431.10 314.76 C 433.12 325.20 437.56 335.20 437.66 345.97 C 437.89 352.68 439.67 359.26 439.47 366.00 C 439.84 374.03 438.05 381.90 437.33 389.85 C 436.58 397.12 434.30 404.07 432.00 410.97 C 429.46 420.94 425.42 430.50 420.34 439.44 C 417.87 443.88 416.05 448.76 412.61 452.60 C 409.17 456.52 406.46 461.05 402.72 464.71 C 400.50 466.85 398.67 469.33 396.90 471.85 C 396.64 472.12 396.11 472.66 395.84 472.93 C 391.85 476.93 387.52 480.61 383.82 484.90 C 380.70 488.71 375.25 489.29 372.11 493.11 C 368.76 497.18 363.62 498.68 359.27 501.29 C 350.21 507.62 339.32 510.24 329.02 513.80 C 321.18 516.14 313.28 518.74 305.03 519.11 C 296.70 519.52 288.34 519.34 280.00 519.37 C 272.60 519.24 265.12 519.70 257.82 518.21 C 252.56 517.16 247.24 516.52 241.96 515.67 C 237.93 515.11 234.82 512.22 231.04 510.96 C 224.58 508.66 217.74 506.94 212.14 502.82 C 207.77 499.58 202.13 498.60 198.03 494.95 C 194.86 492.09 191.33 489.68 187.72 487.42 C 184.24 485.26 182.10 481.63 178.86 479.20 C 176.22 477.15 173.53 475.13 171.23 472.69 C 170.96 472.41 170.43 471.86 170.17 471.58 C 167.86 465.72 162.71 461.98 158.89 457.22 C 153.80 449.27 148.64 441.34 144.00 433.11 C 141.62 428.92 140.55 424.18 139.22 419.60 C 137.64 413.91 134.34 408.82 133.30 402.96 C 131.67 396.25 132.03 389.26 130.49 382.54 C 128.94 375.80 129.83 368.85 129.67 362.00 C 129.79 354.47 128.81 346.73 131.13 339.42 C 133.22 333.79 132.64 327.66 134.23 321.95 C 136.80 316.04 137.76 309.52 140.99 303.88 C 144.65 297.25 147.55 290.22 151.42 283.70 C 151.94 282.79 152.44 281.87 152.95 280.96 C 143.98 280.29 134.98 280.87 126.00 280.74 C 109.30 280.91 92.59 280.46 75.90 281.08 L 75.85 280.25 C 99.57 280.72 123.31 280.20 147.03 280.49 C 149.31 280.32 152.17 280.84 153.78 278.80 C 158.06 274.06 162.08 269.07 165.87 263.93 C 169.68 258.76 174.63 254.63 178.97 249.94 C 183.01 245.52 188.37 242.69 192.93 238.89 C 197.94 234.76 203.15 230.76 209.09 228.02 C 216.14 224.73 222.90 220.74 230.31 218.26 C 234.87 216.72 239.67 216.14 244.31 214.92 C 253.54 212.30 263.12 211.29 272.55 209.60 M 230.73 239.82 C 222.14 243.93 212.94 247.29 205.62 253.59 C 202.20 256.52 198.03 258.56 195.21 262.17 C 192.66 265.32 188.66 266.84 186.25 270.11 C 181.16 276.57 176.70 283.46 171.56 289.87 C 171.13 289.92 170.71 289.99 170.28 290.05 C 166.79 296.34 163.17 302.58 160.35 309.20 C 159.66 311.28 157.44 312.63 157.37 314.93 C 157.16 318.51 155.56 321.72 154.22 324.98 C 151.15 332.21 151.21 340.14 149.75 347.74 C 147.68 361.37 149.25 375.15 149.63 388.82 C 152.57 396.27 153.84 404.23 156.37 411.81 C 159.07 417.68 161.86 423.51 164.63 429.35 C 168.30 438.06 174.39 445.46 180.23 452.79 C 186.25 458.77 192.13 464.93 198.74 470.29 C 209.70 481.01 224.43 486.23 237.80 493.16 C 240.75 494.89 244.39 494.21 247.44 495.64 C 257.04 500.86 268.39 500.56 279.00 500.58 C 287.16 500.46 295.34 500.86 303.49 500.25 C 307.80 499.98 311.76 498.08 316.00 497.47 C 319.08 497.11 321.52 494.92 324.55 494.39 C 328.81 493.55 332.68 491.46 336.91 490.52 C 339.95 490.15 341.70 487.30 344.50 486.35 C 349.50 484.41 354.25 481.86 358.43 478.46 C 365.31 474.21 371.79 469.25 377.22 463.23 C 380.68 459.28 385.48 456.38 387.57 451.38 C 388.94 448.30 392.27 446.76 393.83 443.82 C 395.16 441.27 396.47 438.65 398.59 436.64 C 402.98 432.28 405.48 426.50 407.56 420.77 C 408.65 417.42 411.66 415.04 412.33 411.53 C 413.15 407.98 413.61 404.33 414.87 400.89 C 418.86 390.45 419.90 379.11 419.59 368.00 C 419.73 357.36 419.72 346.64 417.75 336.15 C 416.27 331.24 413.98 326.61 413.10 321.52 C 408.65 310.99 403.98 300.49 398.25 290.59 C 393.77 285.06 390.64 278.52 385.47 273.54 C 379.78 267.91 374.44 261.82 367.83 257.22 C 365.46 255.53 362.89 254.16 360.54 252.46 C 354.36 247.13 346.25 244.96 339.54 240.43 C 336.89 238.22 333.11 238.63 330.39 236.56 C 326.92 234.19 322.76 233.29 318.67 232.72 C 312.08 231.88 305.75 229.39 299.04 229.44 C 286.46 229.34 273.83 229.13 261.27 229.69 C 251.19 233.34 240.38 234.97 230.73 239.82 Z" />
<path fill="#001f4d" stroke="#001f4d" stroke-width="0.09375" opacity="1.00" d=" M 230.73 239.82 C 240.38 234.97 251.19 233.34 261.27 229.69 C 273.83 229.13 286.46 229.34 299.04 229.44 C 305.75 229.39 312.08 231.88 318.67 232.72 C 322.76 233.29 326.92 234.19 330.39 236.56 C 333.11 238.63 336.89 238.22 339.54 240.43 C 346.25 244.96 354.36 247.13 360.54 252.46 C 362.89 254.16 365.46 255.53 367.83 257.22 C 374.44 261.82 379.78 267.91 385.47 273.54 C 390.64 278.52 393.77 285.06 398.25 290.59 C 403.98 300.49 408.65 310.99 413.10 321.52 C 413.98 326.61 416.27 331.24 417.75 336.15 C 419.72 346.64 419.73 357.36 419.59 368.00 C 419.90 379.11 418.86 390.45 414.87 400.89 C 413.61 404.33 413.15 407.98 412.33 411.53 C 411.66 415.04 408.65 417.42 407.56 420.77 C 405.48 426.50 402.98 432.28 398.59 436.64 C 396.47 438.65 395.16 441.27 393.83 443.82 C 392.27 446.76 388.94 448.30 387.57 451.38 C 385.48 456.38 380.68 459.28 377.22 463.23 C 371.79 469.25 365.31 474.21 358.43 478.46 C 354.25 481.86 349.50 484.41 344.50 486.35 C 341.70 487.30 339.95 490.15 336.91 490.52 C 332.68 491.46 328.81 493.55 324.55 494.39 C 321.52 494.92 319.08 497.11 316.00 497.47 C 311.76 498.08 307.80 499.98 303.49 500.25 C 295.34 500.86 287.16 500.46 279.00 500.58 C 268.39 500.56 257.04 500.86 247.44 495.64 C 244.39 494.21 240.75 494.89 237.80 493.16 C 224.43 486.23 209.70 481.01 198.74 470.29 C 192.13 464.93 186.25 458.77 180.23 452.79 C 174.39 445.46 168.30 438.06 164.63 429.35 C 161.86 423.51 159.07 417.68 156.37 411.81 C 153.84 404.23 152.57 396.27 149.63 388.82 C 149.25 375.15 147.68 361.37 149.75 347.74 C 151.21 340.14 151.15 332.21 154.22 324.98 C 155.56 321.72 157.16 318.51 157.37 314.93 C 157.44 312.63 159.66 311.28 160.35 309.20 C 163.17 302.58 166.79 296.34 170.28 290.05 C 170.71 289.99 171.13 289.92 171.56 289.87 C 176.70 283.46 181.16 276.57 186.25 270.11 C 188.66 266.84 192.66 265.32 195.21 262.17 C 198.03 258.56 202.20 256.52 205.62 253.59 C 212.94 247.29 222.14 243.93 230.73 239.82 M 268.54 249.32 C 255.17 251.59 241.93 255.39 229.94 261.82 C 225.25 263.96 220.53 266.59 217.71 271.08 C 218.33 273.79 219.18 276.45 220.19 279.04 C 220.46 284.14 222.67 288.85 224.58 293.51 C 225.03 294.91 226.41 295.53 227.63 296.12 C 229.59 302.04 232.47 307.57 235.50 313.00 C 236.71 317.41 239.78 320.94 242.48 324.52 C 243.18 325.68 244.57 325.81 245.76 326.16 C 249.02 330.63 252.60 334.90 256.93 338.38 C 257.39 339.72 257.71 341.20 258.82 342.20 C 262.26 345.59 266.22 348.55 270.73 350.35 C 272.48 353.60 276.03 355.09 279.10 356.81 C 281.04 357.71 283.19 358.99 285.41 358.31 C 288.26 357.46 290.62 355.59 293.18 354.17 C 317.07 342.80 343.91 336.11 370.46 339.38 C 374.60 340.17 378.79 340.56 383.00 340.87 C 387.13 341.17 390.82 343.48 394.97 343.73 C 396.73 343.99 398.54 342.58 398.69 340.81 C 399.07 337.38 398.63 333.29 395.80 330.96 C 395.10 325.98 392.64 321.51 391.09 316.78 C 390.38 315.23 390.05 313.36 388.76 312.18 C 387.49 307.59 385.17 303.37 382.46 299.48 C 381.35 298.00 380.05 296.23 378.00 296.25 C 375.96 292.36 372.92 289.17 370.24 285.75 C 367.71 282.74 365.34 279.37 361.89 277.35 C 361.62 277.11 361.08 276.63 360.82 276.39 C 353.40 269.42 344.53 264.26 335.35 259.98 C 328.61 254.93 319.90 253.89 312.11 251.25 C 308.32 249.74 304.16 249.74 300.16 249.49 C 297.31 248.08 294.06 248.67 291.02 248.62 C 283.52 248.94 275.97 248.04 268.54 249.32 M 193.50 292.50 C 191.00 295.50 188.33 298.47 186.65 302.03 C 186.23 305.64 186.76 309.28 187.41 312.83 C 186.02 312.13 183.74 310.69 182.60 312.51 C 178.57 318.61 176.71 325.81 174.46 332.70 C 172.00 339.37 170.52 346.43 169.92 353.50 C 169.39 353.91 168.35 354.71 167.83 355.12 C 166.41 373.60 169.15 392.48 176.39 409.60 C 178.23 413.70 179.30 418.76 183.69 420.94 C 185.97 426.38 190.05 430.78 193.33 435.61 C 198.37 442.94 204.94 449.00 211.45 454.99 C 211.45 455.39 211.46 456.17 211.46 456.57 C 218.15 461.76 225.35 467.35 233.97 468.53 C 240.70 464.44 245.99 458.04 250.93 451.90 C 254.20 447.48 258.36 443.68 260.87 438.72 C 263.40 434.04 266.87 429.87 268.76 424.85 C 270.52 420.33 273.09 416.05 273.56 411.14 C 272.49 410.92 271.42 410.73 270.36 410.51 C 271.24 410.19 272.12 409.88 273.01 409.58 C 277.60 399.38 278.26 387.99 279.41 377.01 C 279.11 373.30 280.89 368.22 277.22 365.73 C 272.60 362.59 267.47 360.26 262.92 357.00 C 258.92 354.33 255.66 350.71 251.66 348.06 C 250.23 346.89 248.25 347.63 247.19 348.91 C 248.10 346.11 245.97 343.70 244.34 341.70 C 239.28 336.06 234.71 329.89 228.66 325.23 C 229.05 319.63 224.52 315.58 222.33 310.84 C 218.37 302.60 213.93 294.44 211.85 285.47 C 210.95 282.59 210.74 279.11 208.11 277.18 C 202.53 281.58 198.36 287.38 193.50 292.50 M 347.66 349.31 C 344.34 350.21 340.04 350.08 337.88 353.17 C 337.64 360.44 338.78 367.75 337.72 375.01 C 337.84 380.16 335.06 384.86 335.58 390.04 C 335.91 397.56 332.71 404.54 331.52 411.85 C 331.00 415.18 329.46 418.19 328.19 421.28 C 324.80 431.29 321.72 441.48 316.80 450.88 C 314.66 456.25 310.44 460.52 308.90 466.16 C 307.80 470.29 302.52 472.60 303.72 477.35 C 308.63 476.16 313.67 475.20 318.40 473.47 C 323.70 467.34 327.14 459.83 330.93 452.72 C 334.50 446.70 336.65 440.01 339.95 433.86 C 342.18 426.90 344.87 420.10 347.62 413.33 C 349.37 406.16 350.99 398.92 351.93 391.59 C 354.00 384.59 354.75 377.28 355.31 370.02 C 355.18 364.04 357.31 357.92 355.12 352.09 C 354.44 348.74 350.33 348.56 347.66 349.31 M 384.01 352.63 C 379.63 358.06 382.62 365.38 381.29 371.66 C 380.39 375.36 381.04 379.08 381.45 382.79 C 380.80 384.65 379.68 386.30 378.98 388.14 C 378.24 391.42 379.05 394.92 377.93 398.15 C 376.93 401.23 375.61 404.23 375.18 407.46 C 374.55 411.06 375.06 414.96 373.21 418.25 C 370.14 424.02 369.20 430.61 366.31 436.46 C 365.06 438.92 364.31 441.62 364.71 444.41 C 368.59 444.96 369.51 440.67 371.42 438.28 C 375.65 432.84 379.86 427.36 383.60 421.58 C 387.36 411.34 394.22 402.15 395.37 391.06 C 396.77 383.44 398.03 375.74 397.45 367.96 C 396.91 364.21 399.60 359.61 396.40 356.59 C 393.15 353.39 388.31 352.97 384.01 352.63 M 296.47 364.38 C 292.18 366.38 290.32 371.49 290.58 375.97 C 290.86 381.97 290.15 387.94 289.43 393.89 C 288.96 397.06 286.94 399.78 286.74 403.01 C 286.48 406.29 285.67 409.49 284.42 412.53 C 282.08 418.34 281.67 424.88 278.10 430.18 C 274.80 435.39 273.65 441.81 269.39 446.42 C 267.50 448.57 265.65 450.76 264.12 453.19 C 260.32 459.24 255.15 464.23 250.55 469.64 C 249.36 470.80 249.72 472.54 249.57 474.02 C 254.22 477.21 260.05 475.97 265.30 476.95 C 267.52 477.09 270.42 478.18 272.03 476.03 C 281.59 464.60 287.59 450.82 295.30 438.18 C 298.81 430.00 302.34 421.76 304.16 413.00 C 305.26 407.12 309.28 402.09 309.33 396.00 C 309.54 387.29 313.38 378.90 312.09 370.10 C 311.45 366.26 313.89 361.45 310.00 358.81 C 305.37 360.38 300.88 362.32 296.47 364.38 Z" />
<path fill="#860f35" stroke="#860f35" stroke-width="0.09375" opacity="1.00" d=" M 268.54 249.32 C 275.97 248.04 283.52 248.94 291.02 248.62 C 294.06 248.67 297.31 248.08 300.16 249.49 C 280.55 249.05 261.91 256.38 244.46 264.56 C 236.11 268.94 227.78 273.42 220.19 279.04 C 219.18 276.45 218.33 273.79 217.71 271.08 C 220.53 266.59 225.25 263.96 229.94 261.82 C 241.93 255.39 255.17 251.59 268.54 249.32 Z" />
<path fill="#efc548" stroke="#efc548" stroke-width="0.09375" opacity="1.00" d=" M 244.46 264.56 C 261.91 256.38 280.55 249.05 300.16 249.49 C 304.16 249.74 308.32 249.74 312.11 251.25 C 319.90 253.89 328.61 254.93 335.35 259.98 C 334.90 260.45 334.01 261.41 333.56 261.88 C 320.00 261.02 306.29 262.66 293.12 265.92 C 273.00 270.13 253.81 278.40 236.52 289.46 C 233.39 291.45 230.44 293.71 227.63 296.12 C 226.41 295.53 225.03 294.91 224.58 293.51 C 222.67 288.85 220.46 284.14 220.19 279.04 C 227.78 273.42 236.11 268.94 244.46 264.56 Z" />
<path fill="#8c0a3e" stroke="#8c0a3e" stroke-width="0.09375" opacity="1.00" d=" M 335.35 259.98 C 344.53 264.26 353.40 269.42 360.82 276.39 C 358.08 275.94 355.11 275.89 352.81 274.15 C 346.55 269.82 340.26 265.50 333.56 261.88 C 334.01 261.41 334.90 260.45 335.35 259.98 Z" />
<path fill="#8c0a3f" stroke="#8c0a3f" stroke-width="0.09375" opacity="1.00" d=" M 293.12 265.92 C 306.29 262.66 320.00 261.02 333.56 261.88 C 340.26 265.50 346.55 269.82 352.81 274.15 C 355.11 275.89 358.08 275.94 360.82 276.39 C 361.08 276.63 361.62 277.11 361.89 277.35 C 347.32 276.66 332.64 275.92 318.15 278.16 C 306.96 279.97 295.83 282.34 285.13 286.12 C 274.81 288.98 264.49 292.47 255.63 298.64 C 248.94 303.47 241.61 307.39 235.50 313.00 C 232.47 307.57 229.59 302.04 227.63 296.12 C 230.44 293.71 233.39 291.45 236.52 289.46 C 253.81 278.40 273.00 270.13 293.12 265.92 Z" />
<path fill="#efc548" stroke="#efc548" stroke-width="0.09375" opacity="1.00" d=" M 318.15 278.16 C 332.64 275.92 347.32 276.66 361.89 277.35 C 365.34 279.37 367.71 282.74 370.24 285.75 C 372.92 289.17 375.96 292.36 378.00 296.25 C 368.94 295.52 360.12 293.01 351.02 292.76 C 333.03 292.10 314.68 293.46 297.57 299.37 C 278.91 305.10 260.94 313.78 245.76 326.16 C 244.57 325.81 243.18 325.68 242.48 324.52 C 239.78 320.94 236.71 317.41 235.50 313.00 C 241.61 307.39 248.94 303.47 255.63 298.64 C 264.49 292.47 274.81 288.98 285.13 286.12 C 295.83 282.34 306.96 279.97 318.15 278.16 Z" />
<path fill="#fcfdfd" stroke="#fcfdfd" stroke-width="0.09375" opacity="1.00" d=" M 193.50 292.50 C 198.36 287.38 202.53 281.58 208.11 277.18 C 210.74 279.11 210.95 282.59 211.85 285.47 C 213.93 294.44 218.37 302.60 222.33 310.84 C 224.52 315.58 229.05 319.63 228.66 325.23 C 219.71 332.17 213.30 341.77 206.79 350.89 C 206.00 352.03 204.18 351.64 203.36 350.73 C 199.03 346.76 196.53 341.27 194.21 335.99 C 191.27 328.50 188.89 320.75 187.41 312.83 C 186.76 309.28 186.23 305.64 186.65 302.03 C 188.33 298.47 191.00 295.50 193.50 292.50 Z" />
<path fill="#853241" stroke="#853241" stroke-width="0.09375" opacity="1.00" d=" M 414.94 280.22 C 441.71 280.38 468.49 280.47 495.26 280.17 C 495.08 283.43 494.61 286.68 494.48 289.95 C 494.37 317.63 494.64 345.32 494.33 373.00 C 493.47 379.38 494.49 386.04 492.15 392.16 C 491.51 395.43 491.30 398.83 489.79 401.88 C 487.10 407.12 489.45 413.46 486.54 418.61 C 484.27 422.38 484.66 426.98 483.02 430.98 C 482.04 433.77 479.63 435.70 478.31 438.30 C 475.07 445.76 474.01 454.28 468.90 460.85 C 466.16 464.35 464.43 468.48 462.03 472.19 C 461.60 472.19 460.73 472.20 460.30 472.20 C 439.16 472.49 418.03 472.06 396.90 471.85 C 398.67 469.33 400.50 466.85 402.72 464.71 C 406.46 461.05 409.17 456.52 412.61 452.60 C 416.05 448.76 417.87 443.88 420.34 439.44 C 425.42 430.50 429.46 420.94 432.00 410.97 C 434.30 404.07 436.58 397.12 437.33 389.85 C 438.05 381.90 439.84 374.03 439.47 366.00 C 439.67 359.26 437.89 352.68 437.66 345.97 C 437.56 335.20 433.12 325.20 431.10 314.76 C 429.97 308.18 425.95 302.76 423.41 296.73 C 421.42 290.83 418.21 285.48 414.94 280.22 Z" />
<path fill="#863241" stroke="#863241" stroke-width="0.09375" opacity="1.00" d=" M 75.90 281.08 C 92.59 280.46 109.30 280.91 126.00 280.74 C 134.98 280.87 143.98 280.29 152.95 280.96 C 152.44 281.87 151.94 282.79 151.42 283.70 C 147.41 281.25 142.69 282.84 138.39 283.42 C 135.69 284.07 132.47 284.25 130.53 286.50 C 124.06 294.78 120.58 304.79 116.40 314.31 C 114.15 321.69 110.47 328.68 109.47 336.40 C 108.74 341.28 107.47 346.08 106.99 351.01 C 106.49 356.04 104.62 360.89 104.89 366.00 C 105.16 374.69 104.87 383.38 104.97 392.06 C 107.82 410.95 110.29 430.22 118.20 447.83 C 121.63 454.77 123.69 462.41 128.38 468.69 C 127.29 469.00 126.19 469.32 125.10 469.64 C 126.40 469.95 127.70 470.25 129.00 470.56 C 127.44 470.90 125.87 471.24 124.32 471.62 C 139.60 471.85 154.89 471.63 170.17 471.58 C 170.43 471.86 170.96 472.41 171.23 472.69 C 156.82 472.53 142.41 472.72 128.01 472.81 C 122.98 472.73 117.94 472.58 112.93 473.13 C 112.89 474.70 112.83 476.28 112.87 477.87 C 110.82 472.69 106.31 469.12 103.75 464.25 C 101.79 460.61 98.48 457.72 97.52 453.59 C 96.66 449.53 93.40 446.53 92.66 442.44 C 91.45 437.22 87.90 432.97 86.45 427.84 C 83.55 417.09 80.83 406.30 78.70 395.38 C 77.63 389.53 77.99 383.50 76.52 377.73 C 76.13 375.84 75.89 373.93 75.84 372.01 C 75.64 347.34 75.81 322.67 75.69 298.00 C 75.85 292.35 75.41 286.70 75.90 281.08 Z" />
<path fill="#853241" stroke="#853241" stroke-width="0.09375" opacity="1.00" d=" M 138.39 283.42 C 142.69 282.84 147.41 281.25 151.42 283.70 C 147.55 290.22 144.65 297.25 140.99 303.88 C 137.76 309.52 136.80 316.04 134.23 321.95 C 132.64 327.66 133.22 333.79 131.13 339.42 C 128.81 346.73 129.79 354.47 129.67 362.00 C 129.83 368.85 128.94 375.80 130.49 382.54 C 132.03 389.26 131.67 396.25 133.30 402.96 C 134.34 408.82 137.64 413.91 139.22 419.60 C 140.55 424.18 141.62 428.92 144.00 433.11 C 148.64 441.34 153.80 449.27 158.89 457.22 C 162.71 461.98 167.86 465.72 170.17 471.58 C 154.89 471.63 139.60 471.85 124.32 471.62 C 125.87 471.24 127.44 470.90 129.00 470.56 C 127.70 470.25 126.40 469.95 125.10 469.64 C 126.19 469.32 127.29 469.00 128.38 468.69 C 123.69 462.41 121.63 454.77 118.20 447.83 C 110.29 430.22 107.82 410.95 104.97 392.06 C 104.87 383.38 105.16 374.69 104.89 366.00 C 104.62 360.89 106.49 356.04 106.99 351.01 C 107.47 346.08 108.74 341.28 109.47 336.40 C 110.47 328.68 114.15 321.69 116.40 314.31 C 120.58 304.79 124.06 294.78 130.53 286.50 C 132.47 284.25 135.69 284.07 138.39 283.42 Z" />
<path fill="#8c0a3e" stroke="#8c0a3e" stroke-width="0.09375" opacity="1.00" d=" M 297.57 299.37 C 314.68 293.46 333.03 292.10 351.02 292.76 C 360.12 293.01 368.94 295.52 378.00 296.25 C 380.05 296.23 381.35 298.00 382.46 299.48 C 385.17 303.37 387.49 307.59 388.76 312.18 C 376.77 309.08 364.37 307.84 352.00 308.38 C 335.20 307.58 318.47 310.66 302.49 315.68 C 286.10 320.50 271.06 328.92 256.93 338.38 C 252.60 334.90 249.02 330.63 245.76 326.16 C 260.94 313.78 278.91 305.10 297.57 299.37 Z" />
<path fill="#efc548" stroke="#efc548" stroke-width="0.09375" opacity="1.00" d=" M 302.49 315.68 C 318.47 310.66 335.20 307.58 352.00 308.38 C 364.37 307.84 376.77 309.08 388.76 312.18 C 390.05 313.36 390.38 315.23 391.09 316.78 C 392.64 321.51 395.10 325.98 395.80 330.96 C 383.81 329.57 372.18 325.39 360.00 325.54 C 351.27 325.80 342.45 324.86 333.82 326.57 C 327.63 327.73 321.32 328.31 315.24 330.02 C 299.49 334.42 284.12 340.89 270.73 350.35 C 266.22 348.55 262.26 345.59 258.82 342.20 C 257.71 341.20 257.39 339.72 256.93 338.38 C 271.06 328.92 286.10 320.50 302.49 315.68 Z" />
<path fill="#8d0a42" stroke="#8d0a42" stroke-width="0.09375" opacity="1.00" d=" M 182.60 312.51 C 183.74 310.69 186.02 312.13 187.41 312.83 C 188.89 320.75 191.27 328.50 194.21 335.99 C 196.53 341.27 199.03 346.76 203.36 350.73 C 204.18 351.64 206.00 352.03 206.79 350.89 C 213.30 341.77 219.71 332.17 228.66 325.23 C 234.71 329.89 239.28 336.06 244.34 341.70 C 245.97 343.70 248.10 346.11 247.19 348.91 C 244.38 352.29 241.46 355.63 239.26 359.45 C 237.74 361.13 236.15 362.75 234.73 364.52 C 234.66 364.62 234.50 364.83 234.43 364.93 C 234.03 365.51 233.23 366.68 232.83 367.27 C 232.76 367.38 232.62 367.60 232.55 367.71 C 230.63 370.90 228.86 374.19 227.53 377.68 C 225.48 380.74 228.71 383.33 230.90 385.06 C 237.24 389.70 242.82 395.47 249.98 398.89 C 253.73 400.64 256.53 404.01 260.57 405.20 C 264.74 406.59 268.91 407.98 273.01 409.58 C 272.12 409.88 271.24 410.19 270.36 410.51 C 271.42 410.73 272.49 410.92 273.56 411.14 C 273.09 416.05 270.52 420.33 268.76 424.85 C 266.87 429.87 263.40 434.04 260.87 438.72 C 254.68 434.16 246.87 432.78 240.45 428.63 C 234.73 425.05 228.69 421.90 223.47 417.57 C 220.58 415.43 217.81 412.40 213.94 412.46 C 210.28 426.37 211.72 440.79 211.45 454.99 C 204.94 449.00 198.37 442.94 193.33 435.61 C 190.05 430.78 185.97 426.38 183.69 420.94 C 182.82 413.07 184.35 405.19 186.56 397.66 C 187.59 393.78 189.02 389.95 189.31 385.93 C 189.66 383.80 187.66 382.63 186.42 381.30 C 184.53 379.31 182.97 377.05 181.50 374.75 C 181.45 374.67 181.34 374.50 181.28 374.41 C 179.40 371.40 177.22 368.60 174.78 366.03 C 174.74 365.60 174.66 364.76 174.62 364.34 C 174.36 363.81 173.86 362.75 173.60 362.22 C 173.42 361.67 173.04 360.55 172.85 360.00 C 172.06 358.90 171.28 357.81 170.53 356.69 C 170.29 355.63 170.08 354.57 169.92 353.50 C 170.52 346.43 172.00 339.37 174.46 332.70 C 176.71 325.81 178.57 318.61 182.60 312.51 Z" />
<path fill="#8c0a3e" stroke="#8c0a3e" stroke-width="0.09375" opacity="1.00" d=" M 333.82 326.57 C 342.45 324.86 351.27 325.80 360.00 325.54 C 372.18 325.39 383.81 329.57 395.80 330.96 C 398.63 333.29 399.07 337.38 398.69 340.81 C 398.54 342.58 396.73 343.99 394.97 343.73 C 390.82 343.48 387.13 341.17 383.00 340.87 C 378.79 340.56 374.60 340.17 370.46 339.38 C 343.91 336.11 317.07 342.80 293.18 354.17 C 290.62 355.59 288.26 357.46 285.41 358.31 C 283.19 358.99 281.04 357.71 279.10 356.81 C 276.03 355.09 272.48 353.60 270.73 350.35 C 284.12 340.89 299.49 334.42 315.24 330.02 C 321.32 328.31 327.63 327.73 333.82 326.57 Z" />
<path fill="#fcfcfc" stroke="#fcfcfc" stroke-width="0.09375" opacity="1.00" d=" M 247.19 348.91 C 248.25 347.63 250.23 346.89 251.66 348.06 C 255.66 350.71 258.92 354.33 262.92 357.00 C 267.47 360.26 272.60 362.59 277.22 365.73 C 280.89 368.22 279.11 373.30 279.41 377.01 C 278.26 387.99 277.60 399.38 273.01 409.58 C 268.91 407.98 264.74 406.59 260.57 405.20 C 256.53 404.01 253.73 400.64 249.98 398.89 C 242.82 395.47 237.24 389.70 230.90 385.06 C 228.71 383.33 225.48 380.74 227.53 377.68 C 229.52 375.23 231.44 372.70 233.07 369.98 C 235.11 366.45 238.37 363.57 239.26 359.45 C 241.46 355.63 244.38 352.29 247.19 348.91 Z" />
<path fill="#8e0944" stroke="#8e0944" stroke-width="0.09375" opacity="1.00" d=" M 347.66 349.31 C 350.33 348.56 354.44 348.74 355.12 352.09 C 357.31 357.92 355.18 364.04 355.31 370.02 C 354.75 377.28 354.00 384.59 351.93 391.59 C 350.99 398.92 349.37 406.16 347.62 413.33 C 344.87 420.10 342.18 426.90 339.95 433.86 C 336.65 440.01 334.50 446.70 330.93 452.72 C 327.14 459.83 323.70 467.34 318.40 473.47 C 313.67 475.20 308.63 476.16 303.72 477.35 C 302.52 472.60 307.80 470.29 308.90 466.16 C 310.44 460.52 314.66 456.25 316.80 450.88 C 321.72 441.48 324.80 431.29 328.19 421.28 C 329.46 418.19 331.00 415.18 331.52 411.85 C 332.71 404.54 335.91 397.56 335.58 390.04 C 335.06 384.86 337.84 380.16 337.72 375.01 C 338.78 367.75 337.64 360.44 337.88 353.17 C 340.04 350.08 344.34 350.21 347.66 349.31 Z" />
<path fill="#8d0a44" stroke="#8d0a44" stroke-width="0.09375" opacity="1.00" d=" M 384.01 352.63 C 388.31 352.97 393.15 353.39 396.40 356.59 C 399.60 359.61 396.91 364.21 397.45 367.96 C 398.03 375.74 396.77 383.44 395.37 391.06 C 394.22 402.15 387.36 411.34 383.60 421.58 C 379.86 427.36 375.65 432.84 371.42 438.28 C 369.51 440.67 368.59 444.96 364.71 444.41 C 364.31 441.62 365.06 438.92 366.31 436.46 C 369.20 430.61 370.14 424.02 373.21 418.25 C 375.06 414.96 374.55 411.06 375.18 407.46 C 375.61 404.23 376.93 401.23 377.93 398.15 C 379.05 394.92 378.24 391.42 378.98 388.14 C 379.68 386.30 380.80 384.65 381.45 382.79 C 381.04 379.08 380.39 375.36 381.29 371.66 C 382.62 365.38 379.63 358.06 384.01 352.63 Z" />
<path fill="#fcfbfb" stroke="#fcfbfb" stroke-width="0.09375" opacity="1.00" d=" M 167.83 355.12 C 168.35 354.71 169.39 353.91 169.92 353.50 C 170.08 354.57 170.29 355.63 170.53 356.69 C 171.05 360.15 172.71 363.25 174.78 366.03 C 177.10 370.72 179.09 375.64 182.16 379.92 C 182.99 381.48 184.97 381.01 186.42 381.30 C 187.66 382.63 189.66 383.80 189.31 385.93 C 189.02 389.95 187.59 393.78 186.56 397.66 C 184.35 405.19 182.82 413.07 183.69 420.94 C 179.30 418.76 178.23 413.70 176.39 409.60 C 169.15 392.48 166.41 373.60 167.83 355.12 Z" />
<path fill="#fcfdfd" stroke="#fcfdfd" stroke-width="0.09375" opacity="1.00" d=" M 174.78 366.03 C 172.71 363.25 171.05 360.15 170.53 356.69 C 171.28 357.81 172.06 358.90 172.85 360.00 C 173.04 360.55 173.42 361.67 173.60 362.22 C 173.86 362.75 174.36 363.81 174.62 364.34 C 174.66 364.76 174.74 365.60 174.78 366.03 Z" />
<path fill="#8e0943" stroke="#8e0943" stroke-width="0.09375" opacity="1.00" d=" M 296.47 364.38 C 300.88 362.32 305.37 360.38 310.00 358.81 C 313.89 361.45 311.45 366.26 312.09 370.10 C 313.38 378.90 309.54 387.29 309.33 396.00 C 309.28 402.09 305.26 407.12 304.16 413.00 C 302.34 421.76 298.81 430.00 295.30 438.18 C 287.59 450.82 281.59 464.60 272.03 476.03 C 270.42 478.18 267.52 477.09 265.30 476.95 C 260.05 475.97 254.22 477.21 249.57 474.02 C 249.72 472.54 249.36 470.80 250.55 469.64 C 255.15 464.23 260.32 459.24 264.12 453.19 C 265.65 450.76 267.50 448.57 269.39 446.42 C 273.65 441.81 274.80 435.39 278.10 430.18 C 281.67 424.88 282.08 418.34 284.42 412.53 C 285.67 409.49 286.48 406.29 286.74 403.01 C 286.94 399.78 288.96 397.06 289.43 393.89 C 290.15 387.94 290.86 381.97 290.58 375.97 C 290.32 371.49 292.18 366.38 296.47 364.38 Z" />
<path fill="#fcfbfb" stroke="#fcfbfb" stroke-width="0.09375" opacity="1.00" d=" M 172.85 360.00 C 173.04 360.55 173.42 361.67 173.60 362.22 C 173.42 361.67 173.04 360.55 172.85 360.00 Z" />
<path fill="#fcfdfd" stroke="#fcfdfd" stroke-width="0.09375" opacity="1.00" d=" M 234.73 364.52 C 236.15 362.75 237.74 361.13 239.26 359.45 C 238.37 363.57 235.11 366.45 233.07 369.98 C 231.44 372.70 229.52 375.23 227.53 377.68 C 228.86 374.19 230.63 370.90 232.55 367.71 C 232.62 367.60 232.76 367.38 232.83 367.27 C 233.23 366.68 234.03 365.51 234.43 364.93 C 234.50 364.83 234.66 364.62 234.73 364.52 Z" />
<path fill="#fcfbfb" stroke="#fcfbfb" stroke-width="0.09375" opacity="1.00" d=" M 173.60 362.22 C 173.86 362.75 174.36 363.81 174.62 364.34 C 174.36 363.81 173.86 362.75 173.60 362.22 Z" />
<path fill="#fcfcfc" stroke="#fcfcfc" stroke-width="0.09375" opacity="1.00" d=" M 234.43 364.93 C 234.50 364.83 234.66 364.62 234.73 364.52 C 234.66 364.62 234.50 364.83 234.43 364.93 Z" />
<path fill="#fcfdfd" stroke="#fcfdfd" stroke-width="0.09375" opacity="1.00" d=" M 174.78 366.03 C 177.22 368.60 179.40 371.40 181.28 374.41 C 181.34 374.50 181.45 374.67 181.50 374.75 C 182.97 377.05 184.53 379.31 186.42 381.30 C 184.97 381.01 182.99 381.48 182.16 379.92 C 179.09 375.64 177.10 370.72 174.78 366.03 Z" />
<path fill="#fcfcfc" stroke="#fcfcfc" stroke-width="0.09375" opacity="1.00" d=" M 232.55 367.71 C 232.62 367.60 232.76 367.38 232.83 367.27 C 232.76 367.38 232.62 367.60 232.55 367.71 Z" />
<path fill="#fcfbfb" stroke="#fcfbfb" stroke-width="0.09375" opacity="1.00" d=" M 181.28 374.41 C 181.34 374.50 181.45 374.67 181.50 374.75 C 181.45 374.67 181.34 374.50 181.28 374.41 Z" />
<path fill="#fcfdfc" stroke="#fcfdfc" stroke-width="0.09375" opacity="1.00" d=" M 213.94 412.46 C 217.81 412.40 220.58 415.43 223.47 417.57 C 228.69 421.90 234.73 425.05 240.45 428.63 C 246.87 432.78 254.68 434.16 260.87 438.72 C 258.36 443.68 254.20 447.48 250.93 451.90 C 245.99 458.04 240.70 464.44 233.97 468.53 C 225.35 467.35 218.15 461.76 211.46 456.57 C 211.46 456.17 211.45 455.39 211.45 454.99 C 211.72 440.79 210.28 426.37 213.94 412.46 Z" />
<path fill="#40344c" stroke="#40344c" stroke-width="0.09375" opacity="1.00" d=" M 395.84 472.93 C 396.11 472.66 396.64 472.12 396.90 471.85 C 418.03 472.06 439.16 472.49 460.30 472.20 C 460.67 474.37 459.55 476.24 458.39 477.96 C 458.37 476.41 458.37 474.87 458.38 473.33 C 448.06 473.87 437.76 472.96 427.44 473.35 C 416.91 473.22 406.38 472.44 395.84 472.93 Z" />
<path fill="#042553" stroke="#042553" stroke-width="0.09375" opacity="1.00" d=" M 112.93 473.13 C 117.94 472.58 122.98 472.73 128.01 472.81 C 142.41 472.72 156.82 472.53 171.23 472.69 C 173.53 475.13 176.22 477.15 178.86 479.20 C 182.10 481.63 184.24 485.26 187.72 487.42 C 191.33 489.68 194.86 492.09 198.03 494.95 C 202.13 498.60 207.77 499.58 212.14 502.82 C 217.74 506.94 224.58 508.66 231.04 510.96 C 234.82 512.22 237.93 515.11 241.96 515.67 C 247.24 516.52 252.56 517.16 257.82 518.21 C 265.12 519.70 272.60 519.24 280.00 519.37 C 288.34 519.34 296.70 519.52 305.03 519.11 C 313.28 518.74 321.18 516.14 329.02 513.80 C 339.32 510.24 350.21 507.62 359.27 501.29 C 363.62 498.68 368.76 497.18 372.11 493.11 C 375.25 489.29 380.70 488.71 383.82 484.90 C 387.52 480.61 391.85 476.93 395.84 472.93 C 406.38 472.44 416.91 473.22 427.44 473.35 C 437.76 472.96 448.06 473.87 458.38 473.33 C 458.37 474.87 458.37 476.41 458.39 477.96 C 450.15 488.16 442.79 499.17 433.22 508.21 C 428.84 513.51 422.96 517.18 418.12 522.00 C 412.76 525.26 408.57 530.07 403.01 533.05 C 395.00 538.94 386.27 543.76 377.42 548.28 C 368.04 552.71 358.17 555.98 348.45 559.60 C 343.88 561.27 339.07 562.08 334.39 563.36 C 328.47 564.78 322.56 566.88 316.37 566.29 C 316.78 566.77 317.20 567.26 317.62 567.76 C 310.01 567.21 302.54 568.75 295.02 569.42 C 285.56 569.29 275.99 570.17 266.63 568.38 C 262.26 567.62 257.81 567.56 253.39 567.74 C 253.79 567.24 254.20 566.75 254.60 566.27 C 249.30 566.78 244.14 565.52 239.07 564.17 C 229.84 562.52 221.09 559.11 212.33 555.91 C 209.10 554.83 205.82 553.85 202.79 552.26 C 198.09 549.82 192.94 548.37 188.42 545.60 C 183.71 542.67 178.37 540.77 174.33 536.87 C 167.50 533.77 161.54 529.08 156.11 523.98 C 151.76 521.81 149.06 517.63 145.04 515.02 C 139.84 511.64 136.05 506.64 131.70 502.31 C 127.45 497.48 123.28 492.56 119.59 487.30 C 117.12 484.33 114.11 481.64 112.87 477.87 C 112.83 476.28 112.89 474.70 112.93 473.13 Z" />
</svg>
