<svg width="248" height="338" viewBox="0 0 248 338" fill="none" xmlns="http://www.w3.org/2000/svg">
<g opacity="0.7">
<path d="M179.194 13.261C179.194 10.6497 178.382 8.06499 176.87 5.88003C175.358 3.69503 173.23 1.98964 170.709 0.977094C168.217 -0.00880493 165.445 -0.248616 162.757 0.257659C160.096 0.790585 157.632 2.0696 155.728 3.93484C154.272 5.32046 153.18 6.99914 152.48 8.83773C151.78 10.6763 151.528 12.6482 151.724 14.62C151.92 16.5652 152.564 18.4571 153.628 20.1357C154.692 21.8145 156.092 23.2534 157.8 24.3458C159.676 25.5449 161.833 26.291 164.073 26.5042C166.313 26.7174 168.581 26.3976 170.681 25.5716C172.361 24.8788 173.874 23.8929 175.134 22.6139C177.738 20.1357 179.194 16.7517 179.194 13.261Z" fill="url(#paint0_linear_8656_228992)"/>
<path fill-rule="evenodd" clip-rule="evenodd" d="M153.153 31.7541C150.325 29.4093 148 26.5315 146.376 23.3073C143.8 17.7649 137.415 13.235 132.207 13.235C126.942 13.2616 125.234 17.5517 128.399 22.8277L135.259 34.3122C135.447 34.6251 135.641 34.9369 135.841 35.2474L136.071 35.6284C135.788 35.2011 135.516 34.7713 135.258 34.3392L159.76 75.2678C162.84 80.5172 168.049 80.5172 171.157 75.2678L171.869 74.0757L171.99 74.0843L197.342 31.5099L197.332 31.5131L202.522 22.854C205.687 17.5515 203.951 13.2614 198.742 13.2614C193.506 13.2614 187.121 17.7913 184.545 23.3336C184.545 23.3336 178.58 36.2038 165.447 36.2038C160.971 36.2038 156.634 34.6544 153.228 31.8422C153.203 31.8126 153.178 31.7833 153.153 31.7541Z" fill="url(#paint1_linear_8656_228992)"/>
</g>
<g opacity="0.7">
<path d="M13.261 153.88C10.6497 153.88 8.06499 154.692 5.88003 156.205C3.69502 157.717 1.98964 159.845 0.977092 162.365C-0.00880674 164.857 -0.248618 167.63 0.257657 170.318C0.790584 172.978 2.0696 175.442 3.93484 177.346C5.32046 178.803 6.99914 179.895 8.83773 180.595C10.6763 181.295 12.6482 181.547 14.62 181.351C16.5652 181.155 18.4571 180.511 20.1357 179.447C21.8145 178.383 23.2534 176.982 24.3458 175.274C25.5449 173.398 26.291 171.242 26.5042 169.002C26.7174 166.761 26.3976 164.493 25.5716 162.393C24.8788 160.713 23.8929 159.201 22.6139 157.941C20.1357 155.336 16.7517 153.88 13.261 153.88Z" fill="url(#paint2_linear_8656_228992)"/>
<path fill-rule="evenodd" clip-rule="evenodd" d="M31.7541 179.922C29.4093 182.75 26.5315 185.074 23.3073 186.698C17.7649 189.274 13.235 195.659 13.235 200.867C13.2616 206.132 17.5517 207.84 22.8277 204.676L34.3122 197.815C34.6251 197.628 34.9369 197.434 35.2474 197.234L35.6284 197.004C35.2011 197.287 34.7713 197.558 34.3392 197.817L75.2678 173.314C80.5172 170.234 80.5172 165.026 75.2678 161.917L74.0757 161.206L74.0843 161.084L31.5099 135.732L31.5131 135.742L22.854 130.552C17.5514 127.387 13.2614 129.124 13.2614 134.332C13.2614 139.569 17.7913 145.953 23.3336 148.53C23.3336 148.53 36.2038 154.494 36.2038 167.627C36.2038 172.103 34.6543 176.441 31.8422 179.846C31.8126 179.872 31.7833 179.897 31.7541 179.922Z" fill="url(#paint3_linear_8656_228992)"/>
</g>
<g opacity="0.7">
<path d="M151.472 324.377C151.472 326.989 152.284 329.573 153.797 331.758C155.309 333.943 157.437 335.649 159.957 336.661C162.449 337.647 165.222 337.887 167.91 337.381C170.57 336.848 173.034 335.569 174.939 333.704C176.395 332.318 177.487 330.639 178.187 328.801C178.887 326.962 179.139 324.99 178.943 323.018C178.747 321.073 178.103 319.181 177.039 317.503C175.975 315.824 174.575 314.385 172.866 313.293C170.99 312.093 168.834 311.347 166.594 311.134C164.354 310.921 162.085 311.241 159.985 312.067C158.305 312.76 156.793 313.745 155.533 315.025C152.929 317.503 151.472 320.887 151.472 324.377Z" fill="url(#paint4_linear_8656_228992)"/>
<path fill-rule="evenodd" clip-rule="evenodd" d="M177.514 305.884C180.342 308.229 182.666 311.107 184.29 314.331C186.866 319.874 193.251 324.403 198.46 324.403C203.724 324.377 205.432 320.087 202.268 314.811L195.407 303.326C195.22 303.013 195.026 302.701 194.826 302.391L194.596 302.01C194.879 302.437 195.15 302.867 195.409 303.299L170.907 262.371C167.826 257.121 162.618 257.121 159.51 262.371L158.798 263.563L158.676 263.554L133.324 306.129L133.334 306.125L128.144 314.784C124.979 320.087 126.716 324.377 131.924 324.377C137.161 324.377 143.545 319.847 146.122 314.305C146.122 314.305 152.086 301.435 165.219 301.435C169.695 301.435 174.033 302.984 177.438 305.796C177.464 305.826 177.489 305.855 177.514 305.884Z" fill="url(#paint5_linear_8656_228992)"/>
</g>
<g opacity="0.7">
<path d="M43.3074 273.202C41.4792 275.067 40.2498 277.481 39.7999 280.1C39.3501 282.719 39.6759 285.427 40.7666 287.914C41.8561 290.363 43.6678 292.475 45.9418 293.995C48.2145 295.477 50.8695 296.289 53.5351 296.29C55.5449 296.32 57.4999 295.886 59.287 295.063C61.074 294.24 62.6344 293.009 63.8748 291.463C65.0966 289.937 65.9612 288.135 66.3765 286.192C66.7919 284.248 66.7995 282.24 66.3445 280.264C65.8443 278.095 64.8269 276.052 63.3765 274.332C61.926 272.611 60.0825 271.252 58.0045 270.371C56.3197 269.69 54.5498 269.335 52.7545 269.366C49.1601 269.313 45.7511 270.71 43.3074 273.202Z" fill="url(#paint6_linear_8656_228992)"/>
<path fill-rule="evenodd" clip-rule="evenodd" d="M74.8493 278.228C75.2274 281.882 74.8724 285.564 73.775 289.004C71.7345 294.765 73.1223 302.469 76.8416 306.115C80.6195 309.782 84.8426 307.914 86.2766 301.932L89.4175 288.928C89.5028 288.573 89.5826 288.215 89.657 287.853L89.7596 287.42C89.6626 287.923 89.5553 288.42 89.4376 288.91L100.594 242.53C102.069 236.626 98.3502 232.979 92.4557 234.552L91.1129 234.905L91.0321 234.813L43.1239 247.467L43.1334 247.471L33.3651 250.021C27.3931 251.592 25.6298 255.871 29.3489 259.517C33.0882 263.183 40.8185 264.418 46.5383 262.264C46.5383 262.264 59.8073 257.249 69.1853 266.443C72.3814 269.577 74.3942 273.72 74.8571 278.112C74.8546 278.151 74.852 278.19 74.8493 278.228Z" fill="url(#paint7_linear_8656_228992)"/>
</g>
<g opacity="0.7">
<path d="M67.2861 44.6497C65.4396 42.8032 63.0376 41.5499 60.4234 41.0742C57.8091 40.5984 55.0983 40.8974 52.6003 41.9634C50.1409 43.0286 48.011 44.8193 46.4681 47.0782C44.9639 49.3361 44.1258 51.9829 44.0983 54.6483C44.0484 56.6577 44.4632 58.617 45.2683 60.4121C46.0733 62.2072 47.2894 63.7797 48.8223 65.0354C50.3364 66.2722 52.1296 67.1546 54.069 67.5891C56.0085 68.0238 58.016 68.0512 59.9963 67.6158C62.1709 67.1371 64.2231 66.14 65.9579 64.7066C67.6927 63.2733 69.0705 61.4433 69.9714 59.3742C70.6695 57.6962 71.0417 55.9298 71.0283 54.1344C71.1175 50.5407 69.7544 47.118 67.2861 44.6497Z" fill="url(#paint8_linear_8656_228992)"/>
<path fill-rule="evenodd" clip-rule="evenodd" d="M61.9487 76.1404C58.2907 76.4822 54.6123 76.0908 51.184 74.9594C45.4432 72.862 37.7256 74.1734 34.0426 77.8564C30.3389 81.5978 32.1646 85.8392 38.1328 87.3323L51.1047 90.6019C51.4585 90.6907 51.8161 90.774 52.1772 90.852L52.6092 90.9589C52.1069 90.8569 51.6112 90.7447 51.1228 90.6221L97.3893 102.237C103.279 103.771 106.962 100.088 105.448 94.1783L105.109 92.8321L105.201 92.7522L93.0224 44.7211L93.0176 44.7306L90.5648 34.9375C89.0531 28.9503 84.7917 27.1446 81.1088 30.8275C77.4061 34.5303 76.0946 42.248 78.1919 47.9888C78.1919 47.9888 83.0749 61.3068 73.7884 70.5934C70.6236 73.7582 66.4607 75.7299 62.0644 76.1493C62.0254 76.1464 61.9868 76.1435 61.9487 76.1404Z" fill="url(#paint9_linear_8656_228992)"/>
</g>
<rect x="83.8705" y="86.2783" width="163.728" height="163.728" rx="79.8576" fill="#F3F3F3" stroke="#ADADAD" stroke-width="0.802589"/>
<g clip-path="url(#clip0_8656_228992)">
<path d="M165.735 101.929C136.822 101.929 112.323 120.469 103.273 146.071H228.196C219.147 120.469 194.648 101.929 165.735 101.929Z" fill="#C6363C"/>
<path d="M165.735 234.356C194.648 234.356 219.147 216.037 228.196 190.214H103.273C112.323 216.037 136.822 234.356 165.735 234.356Z" fill="#F9F9F9"/>
<path d="M103.273 146.071C100.845 152.913 99.521 160.418 99.521 168.142C99.521 175.867 100.845 183.372 103.273 190.214H228.196C230.624 183.372 231.948 175.867 231.948 168.142C231.948 160.418 230.624 152.913 228.196 146.071H103.273Z" fill="#0C4076"/>
<path d="M129.317 145.409V181.164C129.317 193.524 139.69 203.456 152.492 203.456C165.293 203.456 175.666 193.524 175.666 181.164V145.409H129.317Z" fill="#C6363C"/>
<path d="M160.879 199.704L160.438 197.718L158.672 194.628L159.334 194.186L158.893 192.2L157.348 189.772L157.789 189.551L157.348 187.565L156.244 185.358L158.01 182.047L159.114 185.579L159.996 184.254L161.321 186.241L161.762 184.917L163.086 185.579L162.866 182.93L165.956 183.813L163.749 180.944H163.969L162.204 177.412L162.645 176.088L163.749 178.295L164.19 177.412L165.956 182.268V182.047L166.839 183.813L167.28 182.93L169.046 186.462L169.708 184.475L172.356 186.462C172.356 186.462 172.136 179.84 172.136 177.854C172.577 172.115 174.563 160.418 173.018 155.12C172.356 152.472 167.059 146.071 167.059 146.071C167.059 146.071 166.839 153.796 165.514 156.224C165.073 157.107 161.1 159.535 161.1 159.535L159.555 159.314L160.217 159.093L157.348 156.224L158.451 150.485L161.321 146.292L156.906 146.513L153.596 147.396L154.479 148.72L152.492 155.783L150.506 148.94L151.389 147.616L148.078 146.513L143.664 146.292L146.533 150.485L147.637 156.224L144.767 159.093L145.429 159.314L143.664 159.755C143.664 159.755 139.691 157.328 139.25 156.445C137.925 154.238 137.705 146.292 137.705 146.292C137.705 146.292 132.407 152.693 131.745 155.341C130.2 160.859 132.407 172.557 132.628 178.074C132.849 180.282 132.407 186.682 132.407 186.682L135.056 184.696L135.718 186.682L137.484 183.151L137.925 184.034L138.808 182.268V182.489L140.574 177.633L141.015 178.516L142.119 176.309L142.56 177.633L140.795 181.164H141.015L138.808 184.034L141.898 183.151V185.799L143.222 185.137L143.664 186.462L144.988 184.475L145.871 185.799L146.974 182.268L148.74 185.579L147.637 187.786L147.195 189.772L147.637 189.993L146.092 192.421L145.65 194.407L146.312 194.849L144.767 198.159L144.326 200.146L160.879 199.704" fill="#F5F5F5"/>
<path d="M139.249 189.552L139.691 188.669L141.677 187.786L143.001 187.344H143.884L144.105 187.124L142.781 186.462L142.56 186.241L141.456 186.682L140.574 187.344L142.339 185.137L143.884 181.606L141.456 183.151L139.249 187.124L138.366 187.565H136.159L135.056 187.344L133.731 188.007L133.952 188.227H134.835L135.718 188.669L137.704 188.448L135.497 189.11L135.056 189.993V191.317H135.276L135.497 190.655H136.601L138.587 188.889L137.042 191.317L136.821 192.421L137.484 193.966L137.925 193.745V192.641L138.808 191.759L139.249 189.552Z" fill="#FFC72C"/>
<path d="M165.513 189.552L165.293 188.669L163.306 187.786L161.982 187.344H161.099L160.878 187.124L162.203 186.462L162.423 186.241L163.527 186.682L164.41 187.344L162.644 185.137L161.099 181.606L163.527 183.151L165.734 187.124L166.617 187.565H168.824L169.928 187.344L171.252 188.007L171.031 188.227H170.148L169.265 188.669L167.279 188.448L169.486 189.11L169.928 189.993V191.317H169.707L169.486 190.655H168.383L166.396 188.889L167.941 191.317L168.162 192.421L167.5 193.966L167.058 193.745V192.641L166.176 191.759L165.513 189.552Z" fill="#FFC72C"/>
<path d="M142.339 146.513C140.132 146.733 140.353 148.278 142.339 150.265C142.781 150.706 142.781 150.706 143.001 150.265C143.222 149.603 143.884 149.161 144.326 149.603C144.546 150.044 144.546 150.265 145.429 150.044C145.65 150.265 146.091 150.485 146.312 150.706C146.091 150.706 145.209 150.927 143.884 151.148C142.781 151.368 142.119 150.927 141.236 150.044C141.456 151.148 144.105 151.81 143.884 151.81C144.105 152.251 144.105 152.472 144.326 152.472C145.209 152.693 146.091 152.03 146.974 152.251C148.961 152.693 145.65 147.175 145.871 146.954C146.091 146.513 143.001 145.63 142.339 146.513" fill="#FFC72C"/>
<path d="M160.438 152.693C160.658 152.693 160.658 152.693 160.879 152.03C160.658 152.03 163.307 151.368 163.528 150.265C162.865 151.148 161.983 151.589 160.879 151.368C159.555 151.148 158.672 150.706 158.451 150.927C158.672 150.706 158.893 150.486 159.334 150.265C160.217 150.486 160.217 150.265 160.438 149.823C160.879 149.382 161.541 149.603 161.762 150.486C161.762 150.927 161.983 150.927 162.424 150.486C164.41 148.499 164.631 146.954 162.424 146.733C161.983 145.851 158.893 146.733 159.113 147.396C159.113 147.616 156.023 153.134 158.01 152.693C158.672 152.251 159.555 152.693 160.438 152.693Z" fill="#FFC72C"/>
<path d="M142.781 160.638V176.75C142.781 181.606 147.195 185.579 152.492 185.579C157.789 185.579 162.203 181.606 162.203 176.75V160.638H142.781" fill="#C6363C"/>
<path d="M149.844 157.769H155.362V190.876H149.844V157.769Z" fill="#F5F5F5"/>
<path d="M137.263 168.805H167.721V174.322H137.263V168.805Z" fill="#F5F5F5"/>
<path d="M148.078 164.611L145.871 166.818L146.533 164.611L145.871 162.625L148.078 164.611Z" fill="#F5F5F5"/>
<path d="M148.078 178.516L145.871 180.723L146.533 178.516L145.871 176.309L148.078 178.516Z" fill="#F5F5F5"/>
<path d="M156.906 164.611L159.113 166.818L158.672 164.611L159.113 162.625L156.906 164.611Z" fill="#F5F5F5"/>
<path d="M156.906 178.516L159.113 180.723L158.672 178.516L159.113 176.309L156.906 178.516Z" fill="#F5F5F5"/>
<path d="M154.699 123.338H150.285V127.752H154.699V123.338Z" fill="#0C4076"/>
<path d="M150.505 120.469L150.946 120.689L151.388 120.469H152.05V123.117H150.284V124H154.698V123.117H152.933V120.469H153.595L154.036 120.689L154.478 120.469L154.919 120.027L154.478 119.586L154.036 119.144L153.595 119.586H152.933V118.703L153.374 118.261L152.933 117.82L152.491 117.379L152.05 117.82L151.608 118.261L152.05 118.703V119.586H151.388L150.946 119.144L150.505 119.586L150.063 120.027L150.505 120.469Z" fill="#FFCE31"/>
<path d="M166.838 129.297C163.969 127.752 162.203 127.311 161.541 128.414C161.541 128.414 161.541 128.635 161.32 128.635C157.789 126.869 155.14 126.649 152.492 127.752C149.843 126.649 147.415 126.869 143.663 128.635C143.663 128.414 143.663 128.414 143.442 128.414C142.78 127.311 141.015 127.531 138.145 129.297C135.276 130.842 132.628 133.049 133.29 133.932C133.51 135.477 134.393 136.801 135.938 138.346C137.704 139.229 141.235 139.45 144.987 139.229C149.843 139.008 154.919 139.008 159.775 139.229C163.527 139.45 167.059 139.229 168.824 138.346C170.369 136.801 171.252 135.477 171.473 133.932C172.356 133.27 169.486 131.063 166.838 129.297Z" fill="#FFC72C"/>
<path d="M155.582 135.477C157.347 133.932 158.451 132.387 159.334 130.842C157.789 130.401 156.244 130.18 154.919 130.401C155.14 132.166 155.361 133.932 155.582 135.477Z" fill="#C6363C"/>
<path d="M149.402 135.477C149.622 133.711 149.843 131.946 150.284 130.18C148.96 129.959 147.415 130.18 145.87 130.621C146.312 132.387 147.636 133.932 149.402 135.477Z" fill="#C6363C"/>
<path d="M167.059 132.387C166.838 132.166 166.397 131.725 165.735 131.504C165.072 131.284 164.41 131.063 163.969 131.063C163.748 132.829 163.086 134.594 161.541 136.36C162.203 136.36 162.865 136.139 163.307 135.918C165.072 135.036 166.176 133.932 167.059 133.049C167.28 132.829 167.28 132.608 167.059 132.387Z" fill="#C6363C"/>
<path d="M141.015 130.842C140.573 130.842 139.911 131.063 139.249 131.283C138.146 131.725 137.483 132.608 137.925 132.828C138.808 133.711 139.911 134.594 141.677 135.698C142.118 135.918 142.781 135.918 143.443 136.139C141.898 134.373 141.236 132.828 141.015 130.842" fill="#C6363C"/>
<path d="M136.159 138.346H168.825V142.761H136.159V138.346Z" fill="#FFC72C"/>
<path d="M136.159 139.229L135.276 140.774L136.38 141.878L137.925 140.333L136.159 139.229Z" fill="#0C4076"/>
<path d="M168.824 139.229L167.059 140.333L168.604 141.878L169.707 140.774L168.824 139.229Z" fill="#0C4076"/>
<path d="M152.492 138.126L150.726 139.671L152.492 140.995L154.257 139.671L152.492 138.126Z" fill="#0C4076"/>
<path d="M144.326 141.216L145.871 139.671L144.105 138.567L142.56 139.891L144.326 141.216Z" fill="#C6363C"/>
<path d="M160.659 141.216L162.424 139.891L160.879 138.567L159.114 139.671L160.659 141.216Z" fill="#C6363C"/>
</g>
<defs>
<linearGradient id="paint0_linear_8656_228992" x1="158.436" y1="6.25513" x2="179.111" y2="84.3173" gradientUnits="userSpaceOnUse">
<stop stop-color="#EAEEF2"/>
<stop offset="1" stop-color="#EAEEF2" stop-opacity="0"/>
</linearGradient>
<linearGradient id="paint1_linear_8656_228992" x1="158.436" y1="6.25513" x2="179.111" y2="84.3173" gradientUnits="userSpaceOnUse">
<stop stop-color="#EAEEF2"/>
<stop offset="1" stop-color="#EAEEF2" stop-opacity="0"/>
</linearGradient>
<linearGradient id="paint2_linear_8656_228992" x1="6.25512" y1="174.638" x2="84.3172" y2="153.963" gradientUnits="userSpaceOnUse">
<stop stop-color="#EAEEF2"/>
<stop offset="1" stop-color="#EAEEF2" stop-opacity="0"/>
</linearGradient>
<linearGradient id="paint3_linear_8656_228992" x1="6.25512" y1="174.638" x2="84.3172" y2="153.963" gradientUnits="userSpaceOnUse">
<stop stop-color="#EAEEF2"/>
<stop offset="1" stop-color="#EAEEF2" stop-opacity="0"/>
</linearGradient>
<linearGradient id="paint4_linear_8656_228992" x1="172.23" y1="331.383" x2="151.555" y2="253.321" gradientUnits="userSpaceOnUse">
<stop stop-color="#EAEEF2"/>
<stop offset="1" stop-color="#EAEEF2" stop-opacity="0"/>
</linearGradient>
<linearGradient id="paint5_linear_8656_228992" x1="172.23" y1="331.383" x2="151.555" y2="253.321" gradientUnits="userSpaceOnUse">
<stop stop-color="#EAEEF2"/>
<stop offset="1" stop-color="#EAEEF2" stop-opacity="0"/>
</linearGradient>
<linearGradient id="paint6_linear_8656_228992" x1="53.2255" y1="292.737" x2="93.111" y2="222.521" gradientUnits="userSpaceOnUse">
<stop stop-color="#EAEEF2"/>
<stop offset="1" stop-color="#EAEEF2" stop-opacity="0"/>
</linearGradient>
<linearGradient id="paint7_linear_8656_228992" x1="53.2255" y1="292.737" x2="93.111" y2="222.521" gradientUnits="userSpaceOnUse">
<stop stop-color="#EAEEF2"/>
<stop offset="1" stop-color="#EAEEF2" stop-opacity="0"/>
</linearGradient>
<linearGradient id="paint8_linear_8656_228992" x1="47.654" y1="54.374" x2="117.472" y2="94.9528" gradientUnits="userSpaceOnUse">
<stop stop-color="#EAEEF2"/>
<stop offset="1" stop-color="#EAEEF2" stop-opacity="0"/>
</linearGradient>
<linearGradient id="paint9_linear_8656_228992" x1="47.654" y1="54.374" x2="117.472" y2="94.9528" gradientUnits="userSpaceOnUse">
<stop stop-color="#EAEEF2"/>
<stop offset="1" stop-color="#EAEEF2" stop-opacity="0"/>
</linearGradient>
<clipPath id="clip0_8656_228992">
<rect x="99.521" y="101.929" width="132.427" height="132.427" rx="66.2136" fill="white"/>
</clipPath>
</defs>
</svg>
